<svg xmlns="http://www.w3.org/2000/svg" xmlns:xlink="http://www.w3.org/1999/xlink" aria-hidden="true" role="img" class="iconify iconify--logos" width="31.88" height="32" preserveAspectRatio="xMidYMid meet" viewBox="0 0 256 257"><defs><linearGradient id="IconifyId1813088fe1fbc01fb466" x1="-.828%" x2="57.636%" y1="-7.652%" y2="100%"><stop offset="0%" stop-color="#fff"></stop><stop offset="100%" stop-color="#fff"></stop></linearGradient><linearGradient id="IconifyId1813088fe1fbc01fb467" x1="43.376%" x2="50.316%" y1="2.242%" y2="89.03%"><stop offset="0%" stop-color="#13adc7"></stop><stop offset="100%" stop-color="#945dd6"></stop></linearGradient></defs><path fill="url(#IconifyId1813088fe1fbc01fb466)" d="M255.153 37.938L134.897 252.976c-2.153 4.405-7.169 7.001-12.915 7.001c-5.744 0-10.742-2.595-12.893-7.001L.328 37.958c-2.153-4.405-2.153-9.612 0-14.017l122.256-215.038c2.153-4.405 7.169-7.001 12.915-7.001c5.744 0 10.742 2.595 12.893 7.001l122.256 215.038c2.153 4.405 2.153 9.612 0 14.017Z"></path><path fill="url(#IconifyId1813088fe1fbc01fb467)" d="M185.432.063L96.44 17.557l63.168 110.486l27.824-48.616l98.344-171.364c-8.814-2.171-17.886-2.108-26.344.079z"></path><path fill="#fff" d="M166.718 130.832L130.241 70.975h35.764l36.59 59.928c5.9 9.569 15.719 15.209 26.921 15.209c11.201 0 21.02-5.64 26.921-15.209l36.59-59.928h35.764l-36.477 59.857c-5.906 9.569-15.719 15.209-26.921 15.209c-11.201 0-21.016-5.64-26.921-15.209z"></path></svg>
